<svg width="25" height="23" viewBox="0 0 30 25" fill="none" xmlns="http://www.w3.org/2000/svg">
<path d="M5.8 1H23.8M1 4H29L25 24H5L1 4ZM20 13.7C20 16.4614 17.7614 18.7 15 18.7C12.2386 18.7 10 16.4614 10 13.7C10 10.9386 12.2386 8.7 15 8.7C17.7614 8.7 20 10.9386 20 13.7Z" stroke="#191414" stroke-width="2" stroke-linecap="round" stroke-linejoin="round"/>
<path d="M5.8 1H23.8M1 4H29L25 24H5L1 4ZM20 13.7C20 16.4614 17.7614 18.7 15 18.7C12.2386 18.7 10 16.4614 10 13.7C10 10.9386 12.2386 8.7 15 8.7C17.7614 8.7 20 10.9386 20 13.7Z" stroke="#F1F1F1" stroke-width="2" stroke-linecap="round" stroke-linejoin="round"/>
</svg>
