<svg width="24" height="21" viewBox="0 0 24 21" fill="none" xmlns="http://www.w3.org/2000/svg">
<path d="M12.2566 4.40021C12.6188 4.40022 12.8895 4.30127 12.9952 4.25953C13.1253 4.20815 13.2236 4.15349 13.2781 4.12139C13.3871 4.05724 13.467 3.99622 13.5001 3.97053C13.5733 3.91362 13.6303 3.8614 13.6523 3.84113C13.704 3.79354 13.7553 3.74259 13.7812 3.71685L13.7815 3.71657C13.8045 3.69371 13.8221 3.67626 13.8354 3.66303C13.8727 3.62602 13.8767 3.62209 13.8728 3.62555C15.6999 2.00139 18.504 2.06462 20.2568 3.81485C22.0441 5.59963 21.9805 8.64155 20.2457 10.4014L20.2343 10.4129L20.2232 10.4246L21.672 11.8034L20.2231 10.4246L20.2229 10.4248L20.222 10.4258L20.2178 10.4302L20.2006 10.4482L20.1322 10.5196C20.072 10.5825 19.9831 10.6751 19.8693 10.7932C19.6418 11.0295 19.315 11.3676 18.9195 11.7736C18.1275 12.5863 17.0634 13.6672 15.9693 14.7457C14.8701 15.8292 13.7619 16.8892 12.8757 17.6702C12.6581 17.862 12.4618 18.0299 12.2884 18.1729C12.1124 18.0287 11.9129 17.8593 11.6915 17.6656C10.7986 16.8842 9.68145 15.8237 8.57346 14.7402C7.47055 13.6615 6.39767 12.5806 5.59912 11.7677C5.20025 11.3617 4.87075 11.0236 4.64128 10.7873C4.52657 10.6691 4.43691 10.5765 4.37614 10.5136L4.30716 10.4422L4.28983 10.4242L4.28561 10.4198L4.28463 10.4188L4.28443 10.4186L2.84133 11.8034L4.28442 10.4186L4.27064 10.4042L4.25657 10.3902C2.43821 8.57446 2.43821 5.63058 4.25657 3.81485C6.00932 2.06464 8.8134 2.0014 10.6405 3.62555C10.6367 3.62214 10.6407 3.62616 10.6784 3.66356C10.6917 3.67674 10.7092 3.69408 10.732 3.71671L10.7322 3.71694C10.7581 3.74267 10.8095 3.79364 10.8612 3.84127C10.8832 3.86154 10.9402 3.91374 11.0134 3.97064C11.0465 3.99632 11.1264 4.05732 11.2353 4.12145C11.2899 4.15354 11.3882 4.20819 11.5182 4.25955C11.6238 4.30128 11.8945 4.40021 12.2566 4.40021ZM12.2566 4.40021L12.2567 2.41104V4.40021C12.2567 4.40021 12.2567 4.40021 12.2566 4.40021Z" fill="#C4C4C4" stroke="#C4C4C4" stroke-width="4"/>
</svg>
