<svg width="21" height="19" viewBox="0 0 21 19" fill="none" xmlns="http://www.w3.org/2000/svg">
<path d="M3.69656 9.41788L3.68279 9.40355L3.66873 9.38949C2.11319 7.83395 2.11319 5.31192 3.66873 3.75637C5.16808 2.25703 7.56694 2.20278 9.12979 3.59402C9.12738 3.59187 9.12569 3.59037 9.12563 3.59043C9.12545 3.59062 9.14177 3.60667 9.20388 3.66844L9.20458 3.66914C9.22782 3.69225 9.27618 3.74034 9.32551 3.78582C9.3465 3.80517 9.40263 3.85666 9.4751 3.91308C9.50778 3.93852 9.58731 3.99936 9.69599 4.0634C9.75038 4.09544 9.84849 4.15007 9.97835 4.20144C10.0838 4.24316 10.3542 4.34215 10.716 4.34216L10.7161 4.34216C11.0779 4.34216 11.3484 4.24315 11.4538 4.20142C11.5837 4.15003 11.6819 4.09539 11.7363 4.06333C11.8449 3.99928 11.9245 3.93841 11.9572 3.91297C12.0297 3.85653 12.0858 3.80503 12.1068 3.78568C12.1561 3.74023 12.2044 3.69218 12.2276 3.66906L12.2284 3.6683C12.2904 3.60663 12.3067 3.59056 12.3065 3.59037C12.3065 3.59032 12.3055 3.59119 12.304 3.59256C13.8668 2.2028 16.2646 2.25754 17.7634 3.75638C19.288 5.28094 19.2374 7.892 17.7523 9.40069L17.7409 9.41222L17.7298 9.42392L17.7296 9.4241L17.7288 9.42499L17.725 9.42889L17.7097 9.44499L17.6484 9.50912C17.5943 9.56559 17.5145 9.64884 17.4124 9.75503C17.2082 9.96745 16.9148 10.2715 16.5596 10.6365C15.8484 11.3674 14.8932 12.3391 13.9112 13.3085C12.9241 14.2829 11.9313 15.2338 11.1392 15.9329C10.9966 16.0588 10.8647 16.1727 10.7441 16.2744C10.6212 16.1714 10.4866 16.056 10.3409 15.9283C9.54262 15.2288 8.54179 14.2775 7.54682 13.303C6.55693 12.3335 5.59375 11.3616 4.87664 10.6306C4.51849 10.2656 4.22264 9.96152 4.01665 9.74907C3.91368 9.64286 3.83321 9.5596 3.7787 9.50312L3.71685 9.43897L3.70135 9.42286L3.6976 9.41896L3.69674 9.41806L3.69656 9.41788Z" fill="#1DB954" stroke="#1DB954" stroke-width="4"/>
</svg>
