<svg width="21" height="19" viewBox="0 0 21 19" fill="none" xmlns="http://www.w3.org/2000/svg">
<path d="M2.25452 10.8037L2.6151 10.4572L2.60807 10.4502C0.466743 8.30882 0.466744 4.83704 2.60807 2.69571C4.6726 0.631182 7.97425 0.55713 10.1271 2.47363C10.1527 2.49639 10.1892 2.53278 10.2355 2.57883C10.2439 2.58718 10.2526 2.59586 10.2616 2.60483C10.2865 2.62958 10.3162 2.65896 10.3422 2.68291C10.3542 2.69398 10.374 2.71189 10.3966 2.72948C10.407 2.73758 10.4288 2.75414 10.4575 2.77107C10.4719 2.77954 10.4971 2.79355 10.5301 2.80662C10.5571 2.81729 10.6252 2.84216 10.7161 2.84216H10.7161C10.8069 2.84216 10.875 2.81729 10.902 2.80662C10.9351 2.79354 10.9603 2.77953 10.9747 2.77105C11.0034 2.75412 11.0252 2.73755 11.0356 2.72945C11.0582 2.71186 11.078 2.69394 11.09 2.68287C11.116 2.65892 11.1457 2.62954 11.1706 2.60479C11.1796 2.59583 11.1883 2.58717 11.1967 2.57882C11.2429 2.53276 11.2794 2.49637 11.305 2.47363C13.4578 0.557112 16.7595 0.631177 18.8241 2.69572C20.9576 4.8293 20.8576 8.38423 18.8213 10.453L18.8212 10.4529L18.8157 10.4588L19.1776 10.8037L18.8156 10.4588L18.8154 10.4591L18.8144 10.4601L18.8104 10.4643L18.7945 10.4809L18.7321 10.5462C18.6773 10.6035 18.5966 10.6876 18.4937 10.7947C18.2877 11.0089 17.9922 11.3151 17.6347 11.6826C16.9194 12.4177 15.9566 13.3971 14.965 14.376C13.9721 15.3561 12.9557 16.3304 12.1317 17.0575C11.7187 17.4221 11.3624 17.717 11.0862 17.9182C10.9473 18.0194 10.8389 18.0892 10.7602 18.1317C10.7556 18.1342 10.7513 18.1364 10.7472 18.1386C10.7429 18.1363 10.7383 18.1339 10.7334 18.1313C10.6541 18.0887 10.5449 18.0186 10.4051 17.9174C10.127 17.7161 9.76825 17.421 9.35222 17.0564C8.52234 16.3291 7.49802 15.3548 6.49726 14.3746C5.49777 13.3957 4.52705 12.4162 3.80587 11.6811C3.44537 11.3136 3.14746 11.0075 2.93975 10.7932C2.83589 10.6861 2.7546 10.602 2.69933 10.5447L2.63637 10.4794L2.62033 10.4628L2.61632 10.4586L2.61533 10.4576L2.6151 10.4573L2.25452 10.8037Z" stroke="#F1F1F1" stroke-opacity="0.85"/>
<path d="M2.25452 10.8037L2.6151 10.4572L2.60807 10.4502C0.466743 8.30882 0.466744 4.83704 2.60807 2.69571C4.6726 0.631182 7.97425 0.55713 10.1271 2.47363C10.1527 2.49639 10.1892 2.53278 10.2355 2.57883C10.2439 2.58718 10.2526 2.59586 10.2616 2.60483C10.2865 2.62958 10.3162 2.65896 10.3422 2.68291C10.3542 2.69398 10.374 2.71189 10.3966 2.72948C10.407 2.73758 10.4288 2.75414 10.4575 2.77107C10.4719 2.77954 10.4971 2.79355 10.5301 2.80662C10.5571 2.81729 10.6252 2.84216 10.7161 2.84216H10.7161C10.8069 2.84216 10.875 2.81729 10.902 2.80662C10.9351 2.79354 10.9603 2.77953 10.9747 2.77105C11.0034 2.75412 11.0252 2.73755 11.0356 2.72945C11.0582 2.71186 11.078 2.69394 11.09 2.68287C11.116 2.65892 11.1457 2.62954 11.1706 2.60479C11.1796 2.59583 11.1883 2.58717 11.1967 2.57882C11.2429 2.53276 11.2794 2.49637 11.305 2.47363C13.4578 0.557112 16.7595 0.631177 18.8241 2.69572C20.9576 4.8293 20.8576 8.38423 18.8213 10.453L18.8212 10.4529L18.8157 10.4588L19.1776 10.8037L18.8156 10.4588L18.8154 10.4591L18.8144 10.4601L18.8104 10.4643L18.7945 10.4809L18.7321 10.5462C18.6773 10.6035 18.5966 10.6876 18.4937 10.7947C18.2877 11.0089 17.9922 11.3151 17.6347 11.6826C16.9194 12.4177 15.9566 13.3971 14.965 14.376C13.9721 15.3561 12.9557 16.3304 12.1317 17.0575C11.7187 17.4221 11.3624 17.717 11.0862 17.9182C10.9473 18.0194 10.8389 18.0892 10.7602 18.1317C10.7556 18.1342 10.7513 18.1364 10.7472 18.1386C10.7429 18.1363 10.7383 18.1339 10.7334 18.1313C10.6541 18.0887 10.5449 18.0186 10.4051 17.9174C10.127 17.7161 9.76825 17.421 9.35222 17.0564C8.52234 16.3291 7.49802 15.3548 6.49726 14.3746C5.49777 13.3957 4.52705 12.4162 3.80587 11.6811C3.44537 11.3136 3.14746 11.0075 2.93975 10.7932C2.83589 10.6861 2.7546 10.602 2.69933 10.5447L2.63637 10.4794L2.62033 10.4628L2.61632 10.4586L2.61533 10.4576L2.6151 10.4573L2.25452 10.8037Z" stroke="#646464"/>
</svg>
