<svg width="25" height="25" viewBox="0 0 33 29" fill="none" xmlns="http://www.w3.org/2000/svg">
<path d="M4.68934 15.2747L4.69967 15.2854L3.61814 16.3248C4.69967 15.2854 4.69969 15.2854 4.69974 15.2855L4.70008 15.2858L4.70156 15.2874L4.70768 15.2937L4.73236 15.3194L4.82977 15.4204C4.91538 15.5091 5.04143 15.6396 5.20256 15.8057C5.52484 16.1381 5.98727 16.6134 6.54691 17.1838C7.66679 18.3254 9.17316 19.8454 10.7233 21.3636C12.2772 22.8855 13.8593 24.3901 15.135 25.508C15.7761 26.0699 16.3147 26.5118 16.7204 26.8055C16.7584 26.8331 16.7942 26.8585 16.8278 26.882C16.8602 26.8592 16.8946 26.8346 16.9311 26.808C17.3338 26.5147 17.8683 26.0732 18.5048 25.5115C19.7711 24.3938 21.3409 22.8896 22.8826 21.3677C24.4204 19.8496 25.9145 18.3297 27.0252 17.1882C27.5802 16.6178 28.0388 16.1426 28.3584 15.8102C28.5182 15.644 28.6432 15.5136 28.7281 15.4249L28.8247 15.3239L28.8492 15.2983L28.8552 15.2919L28.8567 15.2904L28.857 15.29C28.8571 15.29 28.8571 15.2899 29.943 16.3248L28.8571 15.2899L28.8655 15.2812L28.874 15.2725C31.7762 12.3242 31.908 7.24872 28.8823 4.22304C25.9429 1.28366 21.2416 1.17799 18.1768 3.90633L18.1767 3.90639C18.1766 3.90653 18.1762 3.90688 18.1755 3.90746L18.1717 3.91099L18.1581 3.9238C18.1464 3.9349 18.1321 3.94871 18.1149 3.96566C18.0897 3.9904 18.0661 4.01398 18.0392 4.0408C18.0261 4.05391 18.0121 4.0678 17.9969 4.08298C17.9591 4.12055 17.9037 4.17551 17.8518 4.22336C17.8288 4.24456 17.7805 4.28861 17.7213 4.33468C17.6944 4.35563 17.6327 4.40273 17.5495 4.45176C17.5079 4.4763 17.4335 4.51766 17.3355 4.55645C17.2557 4.588 17.0524 4.66237 16.7806 4.66237L4.68934 15.2747ZM4.68934 15.2747L4.6788 15.2641C1.62989 12.2152 1.62989 7.27195 4.6788 4.22304C7.61817 1.28367 12.3194 1.17801 15.3842 3.90633C15.3842 3.90628 15.3846 3.90665 15.3855 3.90748L15.3894 3.91102L15.403 3.92385C15.4147 3.93496 15.429 3.94879 15.4462 3.96574C15.4714 3.9905 15.4951 4.01409 15.522 4.04091C15.5351 4.05403 15.549 4.06791 15.5643 4.08308C15.6021 4.12066 15.6575 4.17562 15.7094 4.22346C15.7324 4.24467 15.7807 4.2887 15.8399 4.33475C15.8668 4.35571 15.9285 4.40279 16.0117 4.45181C16.0533 4.47633 16.1276 4.51768 16.2257 4.55646C16.3054 4.588 16.5087 4.66237 16.7805 4.66237L4.68934 15.2747ZM16.4494 27.1155C16.4498 27.1148 16.4599 27.1097 16.4788 27.1026C16.4585 27.1127 16.4491 27.1163 16.4494 27.1155ZM17.1779 27.1018C17.1968 27.1089 17.2069 27.1139 17.2073 27.1147C17.2076 27.1154 17.1982 27.1119 17.1779 27.1018Z" stroke="#191414" stroke-width="3"/>
<path d="M4.68934 15.2747L4.69967 15.2854L3.61814 16.3248C4.69967 15.2854 4.69969 15.2854 4.69974 15.2855L4.70008 15.2858L4.70156 15.2874L4.70768 15.2937L4.73236 15.3194L4.82977 15.4204C4.91538 15.5091 5.04143 15.6396 5.20256 15.8057C5.52484 16.1381 5.98727 16.6134 6.54691 17.1838C7.66679 18.3254 9.17316 19.8454 10.7233 21.3636C12.2772 22.8855 13.8593 24.3901 15.135 25.508C15.7761 26.0699 16.3147 26.5118 16.7204 26.8055C16.7584 26.8331 16.7942 26.8585 16.8278 26.882C16.8602 26.8592 16.8946 26.8346 16.9311 26.808C17.3338 26.5147 17.8683 26.0732 18.5048 25.5115C19.7711 24.3938 21.3409 22.8896 22.8826 21.3677C24.4204 19.8496 25.9145 18.3297 27.0252 17.1882C27.5802 16.6178 28.0388 16.1426 28.3584 15.8102C28.5182 15.644 28.6432 15.5136 28.7281 15.4249L28.8247 15.3239L28.8492 15.2983L28.8552 15.2919L28.8567 15.2904L28.857 15.29C28.8571 15.29 28.8571 15.2899 29.943 16.3248L28.8571 15.2899L28.8655 15.2812L28.874 15.2725C31.7762 12.3242 31.908 7.24872 28.8823 4.22304C25.9429 1.28366 21.2416 1.17799 18.1768 3.90633L18.1767 3.90639C18.1766 3.90653 18.1762 3.90688 18.1755 3.90746L18.1717 3.91099L18.1581 3.9238C18.1464 3.9349 18.1321 3.94871 18.1149 3.96566C18.0897 3.9904 18.0661 4.01398 18.0392 4.0408C18.0261 4.05391 18.0121 4.0678 17.9969 4.08298C17.9591 4.12055 17.9037 4.17551 17.8518 4.22336C17.8288 4.24456 17.7805 4.28861 17.7213 4.33468C17.6944 4.35563 17.6327 4.40273 17.5495 4.45176C17.5079 4.4763 17.4335 4.51766 17.3355 4.55645C17.2557 4.588 17.0524 4.66237 16.7806 4.66237L4.68934 15.2747ZM4.68934 15.2747L4.6788 15.2641C1.62989 12.2152 1.62989 7.27195 4.6788 4.22304C7.61817 1.28367 12.3194 1.17801 15.3842 3.90633C15.3842 3.90628 15.3846 3.90665 15.3855 3.90748L15.3894 3.91102L15.403 3.92385C15.4147 3.93496 15.429 3.94879 15.4462 3.96574C15.4714 3.9905 15.4951 4.01409 15.522 4.04091C15.5351 4.05403 15.549 4.06791 15.5643 4.08308C15.6021 4.12066 15.6575 4.17562 15.7094 4.22346C15.7324 4.24467 15.7807 4.2887 15.8399 4.33475C15.8668 4.35571 15.9285 4.40279 16.0117 4.45181C16.0533 4.47633 16.1276 4.51768 16.2257 4.55646C16.3054 4.588 16.5087 4.66237 16.7805 4.66237L4.68934 15.2747ZM16.4494 27.1155C16.4498 27.1148 16.4599 27.1097 16.4788 27.1026C16.4585 27.1127 16.4491 27.1163 16.4494 27.1155ZM17.1779 27.1018C17.1968 27.1089 17.2069 27.1139 17.2073 27.1147C17.2076 27.1154 17.1982 27.1119 17.1779 27.1018Z" stroke="#F1F1F1" stroke-width="3"/>
</svg>
