<svg width="19" height="19" viewBox="0 0 19 24" fill="none" xmlns="http://www.w3.org/2000/svg">
<path fill-rule="evenodd" clip-rule="evenodd" d="M9.17617 0.976255C4.64177 0.976255 0.965912 4.69147 0.965912 9.27442C0.965912 13.8574 4.64177 17.5726 9.17617 17.5726C13.7106 17.5726 17.3864 13.8574 17.3864 9.27442C17.3864 4.69147 13.7106 0.976255 9.17617 0.976255ZM0 9.27442C0 4.1523 4.10831 0 9.17617 0C14.244 0 18.3523 4.1523 18.3523 9.27442C18.3523 12.1082 17.0949 14.645 15.1133 16.3462C14.695 16.7053 14.5743 17.3222 14.8848 17.7776L18.4797 23.0496C18.6294 23.2692 18.5744 23.5683 18.3563 23.7202V23.7202C18.1351 23.8743 17.8308 23.8183 17.6789 23.5956L14.0028 18.2046C13.7142 17.7812 13.1542 17.6505 12.6815 17.8481C11.6015 18.2997 10.4176 18.5488 9.17617 18.5488C4.10831 18.5488 0 14.3965 0 9.27442Z" fill="#191414"/>
<path fill-rule="evenodd" clip-rule="evenodd" d="M9.17617 0.976255C4.64177 0.976255 0.965912 4.69147 0.965912 9.27442C0.965912 13.8574 4.64177 17.5726 9.17617 17.5726C13.7106 17.5726 17.3864 13.8574 17.3864 9.27442C17.3864 4.69147 13.7106 0.976255 9.17617 0.976255ZM0 9.27442C0 4.1523 4.10831 0 9.17617 0C14.244 0 18.3523 4.1523 18.3523 9.27442C18.3523 12.1082 17.0949 14.645 15.1133 16.3462C14.695 16.7053 14.5743 17.3222 14.8848 17.7776L18.4797 23.0496C18.6294 23.2692 18.5744 23.5683 18.3563 23.7202V23.7202C18.1351 23.8743 17.8308 23.8183 17.6789 23.5956L14.0028 18.2046C13.7142 17.7812 13.1542 17.6505 12.6815 17.8481C11.6015 18.2997 10.4176 18.5488 9.17617 18.5488C4.10831 18.5488 0 14.3965 0 9.27442Z" fill="#F1F1F1"/>
</svg>
